<?xml version="1.0" encoding="utf-8"?>
<!-- Generator: Adobe Illustrator 16.0.2, SVG Export Plug-In . SVG Version: 6.00 Build 0)  -->
<!DOCTYPE svg PUBLIC "-//W3C//DTD SVG 1.1//EN" "http://www.w3.org/Graphics/SVG/1.1/DTD/svg11.dtd">
<svg version="1.1" id="Layer_1" xmlns="http://www.w3.org/2000/svg" xmlns:xlink="http://www.w3.org/1999/xlink" x="0px" y="0px"
	 width="595.28px" height="841.89px" viewBox="0 0 595.28 841.89" enable-background="new 0 0 595.28 841.89" xml:space="preserve">


<style>
path:hover {
  fill: crimson;
  cursor: pointer;
}
</style>



<g>
	<path fill-rule="evenodd" clip-rule="evenodd" fill="#010202" d="M284.727,183.507c-5.086-1.152-5.614-0.649-5.766,4.458
		c-0.098,3.319,1.616,6.376,1.094,9.753c-0.186,1.2-0.214,2.366-1.342,2.99c-1.381,0.764-2.497,0.165-3.452-0.953
		c-1.771-2.074-3.732-2.658-5.945-0.618c-1.866,1.72-4.143,0.803-6.19,0.787c-2.925-0.023-4.448,0.848-4.139,3.999
		c0.295,3.005-0.825,6.209,1.933,8.787c3.244,3.032,2.2,5.95-1.147,7.942c-4.416,2.627-3.213,4.641,0.22,6.856
		c0.803,0.518,1.572,1.103,2.363,1.637c9.286,6.271,10.939,12.362,6.773,22.819c-0.615,1.543-1.383,3.233-1.176,5.177
		c0.648,6.085,3.367,7.578,8.292,4.008c2.3-1.667,4.583-2.19,7.292-2.194c3.722-0.005,7.588,0.809,11.003-1.705
		c0.639-0.47,2.524-0.469,2.779-0.048c2.345,3.875,4.706,0.736,7.38,0.259c-0.482,4.244,2.734,5.235,5.875,5.429
		c4.508,0.278,9.137-0.108,13.197-2.298c1.487-0.802,2.046-0.008,3.021,0.375c1.782,0.701,3.538,1.571,5.391,1.969
		c4.025,0.866,6.237-1.587,5.295-6.111c3.494,1.81,6.873,3.315,10.62,1.238c0.693-0.384,1.629,0.013,2.206,0.75
		c6.468,8.254,15.405,11.104,25.411,12.345c4.366,0.541,9.274,1.671,10.938,7.054c0.606,1.964,1.783,2.682,3.938,2.908
		c2.741,0.288,4.092,1.619,3.628,5.188c-0.533,4.094-1.353,8.652,1.201,12.547c1.187,1.811-0.031,2.859-1.116,2.967
		c-5.215,0.519-6.199,6.92-11.117,7.798c-0.34,0.061-0.539,1.276-1.593,1.397c-4.548,0.523-3.008,2.911-1.147,4.775
		c2.504,2.509,1.437,6.945-0.971,9.355c-3.755,3.76-7.75,1.769-11.684,1.821c-2.852,0.038-5.941-0.362-6.724,3.348
		c-0.74,3.514,1.405,5.476,4.403,6.744c2.827,1.196,4.744,2.657,6.534,5.787c2.016,3.522,6.548,5.934,9.585,9.28
		c1.031,1.137,2.222,1.19,3.554,0.3c1.599-1.067,3.383-2.249,5.001-2.785c1.894-0.627,4.755-3.131,6.415-0.32
		c1.517,2.568,0.549,5.972-2.066,7.317c-3.143,1.617-2.721,3.706-2.131,6.125c1.205,4.938-0.896,7.933-5.697,8.299
		c-1.216,0.093-3.315-1.25-3.587,1.263c-0.155,1.426-0.785,3.372,0.406,4.268c1.245,0.936,3.112,0.701,4.662-0.165
		c1.72-0.96,3.484-1.506,5.555-1.484c5.953,0.064,7.258,1.205,7.298,7.001c0.032,4.598-2.403,6.971-7.361,7.041
		c-4.165,0.059-8.339,0.154-12.496-0.044c-2.296-0.109-4.022,0.656-4.905,2.571c-1.083,2.347-0.885,5.903-4.025,6.351
		c-4.518,0.643-9.849,1.178-13.063-2.482c-5.695-6.484-14.074-9.821-18.63-17.87c-2.784-4.917-9.592-3.164-14.271-1.986
		c-8.417,2.119-13.58,8.884-18.226,15.782c-1.278,1.898-2.337,3.351-4.823,4.208c-5.783,1.993-6.708,5.492-4.859,11.441
		c1.075,3.459,2.047,7.334-1.302,10.571c-1.52,1.469-2.939,1.818-4.869,1.11c-1.836-0.673-2.023-1.915-2.254-3.708
		c-0.972-7.555-5.271-14.041-7.182-21.36c-1.243-4.764-3.376-9.33-5.066-13.998c-0.795-2.197-1.083-5.55-5.035-5.821
		c-1.691-0.116-2.507-2.322-0.911-3.888c2.545-2.496,5.259-4.679,3.991-8.976c-0.23-0.78,1.082-2.555,2.092-3.077
		c8.025-4.151,6.476-11.066,5.616-17.98c-0.672-5.405-3.843-7.069-8.742-6.839c-4.238,0.199-6.268-3.177-8.789-5.646
		c-3.556-3.483-7.288-6.225-12.627-6.423c-5.468-0.203-9.309,1.259-12.281,6.383c-4.701,8.103-5.822,8.125-14.572,4.494
		c-2.794-1.159-5.042-1.73-6.808,1.908c-3.071,6.326-5.083,6.718-11.137,3.126c-5.036-2.988-10.588-0.985-12.222,4.621
		c-0.72,2.469-1.09,5.103-1.185,7.677c-0.165,4.454-0.445,8.673-3.203,12.582c-2.617,3.709-0.315,7.368,1.866,10.312
		c1.795,2.423,3.71,5.476,8.121,3.185c2.506-1.302,5.478,0.23,7.4,2.583c1.268,1.552,1.455,3.996,0.161,4.878
		c-1.169,0.797-2.622,2.902-4.961,1.363c-6.831-4.494-9.567-1.917-13.361,4.191c-6.162,9.918-21.162,10.799-27.993,1.476
		c-2.164-2.954-4.87-5.724-7.865-7.806c-5.188-3.606-7.479-8.37-7.153-14.438c0.133-2.48-0.95-4.013-2.576-5.506
		c-3.465-3.183-6.129-6.599-5.614-11.862c0.243-2.483-0.958-4.979-3.071-6.83c-5.085-4.456-9.411-9.597-12.529-15.595
		c-1.378-2.651-3.647-4.257-5.885-5.58c-4.426-2.619-5.022-6.752-5.335-11.061c-0.206-2.836-1.087-5.438-2.448-7.756
		c-1.736-2.959-5.101-5.152-2.819-9.465c0.34-0.643-0.834-3.072-2.588-3.787c-3.772-1.537-7.541-3.051-11.826-1.33
		c-1.613-3.649,1.821-6.675,1.587-10.153c-0.315-4.681,3.775-4.809,6.326-6.646c1.865-1.343,3.899-2.891,4.938-4.837
		c1.671-3.129,1.513-6.213-2.405-8.123c-2.577-1.256-3.8-2.92-0.867-5.498c4.241-3.727,4.456-15.185,0.563-19.416
		c-1.577-1.714-3.723-3.049-4.851-4.996c-1.655-2.856-7.409-5.268-1.792-9.561c-0.657-7.865,3.975-5.199,8.339-4.666
		c3.098,0.378,5.983-1.929,8.484-3.996c4.027-3.328,8.064-6.644,12.054-10.017c3.432-2.902,7.797-1.708,11.677-2.655
		c14.136-3.45,28.645-1.284,42.938-2.301c10.275-0.731,20.513-0.63,30.769-0.821c0.5-0.009,1.037,0.105,1.494-0.038
		c2.923-0.915-0.46-6.628,5.004-6.096c5.214,0.507,3.224-4.024,3.283-6.52c0.213-8.884,1.611-12.909,7.949-13.395
		c7.321-0.561,14.861-2.815,21.892-1.571c7.648,1.353,15.051,5.078,21.629,9.613c3.668,2.529,8.492,1.943,11.823,5.023
		C284.557,182.338,285.131,182.455,284.727,183.507z"/>
	<path fill-rule="evenodd" clip-rule="evenodd" fill="#010202" d="M240.018,674.969c1.797-7.83,0.869-8.963-6.024-8.969
		c-2.833-0.002-5.758-0.461-8.48,0.09c-7.107,1.438-12.414-2.705-18.125-5.457c-1.563-0.754-3.399-2.119-3.408-4.529
		c-0.013-3.552-2.25-3.347-4.78-2.77c-5.173,1.181-10.185,1.792-13.889-3.412c-0.818-1.149-1.502-2.122-1.311-3.538
		c0.241-1.781-0.539-3.597-1.686-4.398c-5.896-4.123-5.53-9.125-2.943-14.916c2.46-5.508,0.692-7.97-5.148-8.104
		c-3.159-0.073-6.743,1.502-8.063-3.94c-0.735-3.028-5.364-2.939-8.314-4.161c-2.98-1.234-7.522-2.089-3.261-7.366
		c1.467-1.816,1.42-5.956-0.238-7.991c-1.104-1.354-4.41-1.323-6.19,1.327c-0.375,0.559-2.242,0.326-3.367,0.134
		c-4.891-0.835-5.902,3.029-5.481,5.904c0.349,2.384-0.77,3.281-1.391,4.942c-1.385,3.703-4.145,4.24-6.671,2.698
		c-2.866-1.749-4.204-4.9-2.747-8.561c0.634-1.593,1.775-2.709,2.918-3.88c5.364-5.499,6.197-11.87,2.051-17.929
		c-1.009-1.475-2.082-2.889-1.277-4.43c0.802-1.535,2.703-0.65,4.091-0.675c7.148-0.127,10.918-3.556,11.694-10.985
		c0.298-2.858,2.204-4.978,3.154-7.541c1.565-4.224,0.471-6.332-3.936-6.494c-2.578-0.096-5.162-0.018-9.136-0.018
		c5.22-3.388,5.936-7.291,6.162-12.006c0.231-4.83,5.457-6.742,8.559-9.863c0.441-0.444,1.843-0.412,2.137,0.519
		c1.324,4.192,4.753,3.151,7.773,3.381c3.732,0.284,7.441,0.087,11.235,0.646c4.705,0.693,7.261-4.076,9.826-7.278
		c2.855-3.563,5.141-6.971,10.535-6.523c2.797,0.231,6.087-5.74,5.67-9.637c-0.352-3.279-2.74-3.444-5.365-3.257
		c-4.391,0.313-4.989-4.482-8.046-6.226c-2.271-1.295-3.971-3.281-6.92-2.769c-2.113,0.366-3.851-0.238-5.212-2.038
		c-0.889-1.175-1.953-2.128-3.74-1.986c-3.902,0.309-5.298-1.829-4.649-5.429c0.588-3.262,1.242-6.563,5.718-6.544
		c8.498,0.035,16.997,0.074,25.494-0.035c2.115-0.027,2.443,0.656,2.899,2.701c1.817,8.152,5.471,10.371,13.686,10.6
		c2.465,0.068,5.109,0.653,7.702,0.742c2.528,0.087,4.586-0.353,6.047-2.943c1.515-2.688,4.82-2.736,7.371-2.907
		c4.218-0.282,4.932-3.224,3.877-5.646c-2.365-5.429,1.192-6.849,4.697-8.62c3.804-1.924,7.41-3.912,8.517-8.615
		c0.627-2.665,3.216-4.482,5.418-3.969c3.177,0.74,4.267,4.008,4.532,7.181c0.272,3.26-0.438,6.403,2.588,9.359
		c1.358,1.326,2.149,2.177,3.921,2.166c2.166-0.013,4.332,0.007,6.499-0.005c7.474-0.039,15.157,1.425,20.399-6.597
		c2.861-4.377,7.061,0.326,10.676,0.15c0.439-0.021,0.955,0.552,1.333,0.455c7.546-1.936,15.154,4.068,22.822-0.547
		c5.587-3.362,10.011-1.726,12.671,4.284c1.478,3.339,3.614,6.336,4.318,10.166c0.532,2.9,3.519,4.457,6.592,5.099
		c10.53,2.198,21.163,3.968,31.251,7.946c4.969,1.96,6.51,7.854,2.846,11.632c-6.251,6.445-12.383,12.935-21.783,14.985
		c-3.097,0.676-5.831-0.416-8.547-0.794c-8.925-1.242-14.321,3.055-18.532,9.969c-2.753,4.519-5.787,8.925-7.995,13.705
		c-3.858,8.351-10.689,11.192-19.166,11.535c-3.075,0.125-6.907-0.051-7.656,3.416c-0.817,3.775-1.293,8.027,3.93,10.384
		c4.904,2.213,4.95,6.761,1.741,10.994c-3.238,4.272-7.285,7.032-11.724,9.882c-5.052,3.243-7.573,9.196-10.617,14.35
		c-3.008,5.094-6.354,10.086-6.719,16.338c-0.138,2.377-2.913,3.129-3.841,5.143c-1.521,3.301-1.068,6.793-0.928,10.196
		c0.161,3.916-0.68,7.502-3.135,10.439c-2.295,2.746-2.288,5.627-1.563,8.743c0.84,3.611-1.545,7.526-5.006,8.088
		c-1.243,0.202-2.17-0.188-3.052-1.185c-4.317-4.871-9.05-5.274-14.207-1.434c-1.404,1.046-3.065,1.742-4.497,2.756
		C243.294,672.022,242.138,673.159,240.018,674.969z"/>
	<path fill-rule="evenodd" clip-rule="evenodd" fill="#010202" d="M402.29,378.752c-0.017-7.17-4.641-7.092-9.964-6.747
		c3.105-3.763,3.504-7.403,2.032-11.053c-0.767-1.899,0.713-1.625,1.395-2.332c1.31-1.359,3.479-2.211,3.245-4.66
		c-0.241-2.529,1.029-5.539-1.86-7.272c-2.682-1.609-5.609-1.022-7.839,0.7c-4.084,3.155-6.929,3.673-10.154-1.429
		c-1.681-2.66-5.577-3.717-6.234-7.695c-0.308-1.857-2.461-2.046-4.276-2.338c-1.854-0.299-4.086-0.741-4.528-3.021
		c-0.219-1.129-0.893-3.195,0.5-3.577c2.314-0.636,5.408-1.351,7.145,0.283c2.458,2.312,3.834,0.854,6.204,0.183
		c5.446-1.543,5.534-6.59,7.653-10.187c1.749-2.968-0.654-4.783-3.29-5.38c2.809-3.86,8.009-4.146,9.795-8.656
		c0.337-0.851,1.137-1.538,2.314-1.58c5.483-0.193,4.259-4.582,2.974-6.719c-2.177-3.621-1.522-6.932-0.781-10.38
		c0.975-4.54-0.1-6.683-4.782-7.831c-1.028-0.252-2.106-0.371-2.491-1.312c-3.543-8.657-11.277-8.806-18.884-9.929
		c-3.459-0.511-6.804-2.294-10.122-4.208c-4.072-2.348-7.972-4.249-10.542-8.281c-5.075,2.535-9.642-0.008-14.434-1.204
		c-2.096-0.522-1.635,2.134-1.241,2.873c2.233,4.198-1.202,3.112-2.816,2.879c-1.68-0.243-3.307-1.212-4.825-2.091
		c-1.07-0.619-2.464-1.439-3.111-0.433c-2.097,3.263-5.567,2.26-8.407,3.14c-3.436,1.065-6.375,0.921-7.435-3.399
		c-0.179-0.727-0.671-1.473-1.223-1.994c-2.231-2.107-4.419,3.126-7.229-0.207c-2.099-2.488-5.297-0.824-7.411,1.049
		c-1.675,1.485-3.414,0.943-5.148,1.029c-4.175,0.205-8.568-0.89-12.193,2.281c-0.944,0.825-2.384,1.375-3.045,0.249
		c-1.13-1.924-0.897-4.248,0.048-6.216c2.883-6,2.035-12.097,0.628-18.177c-1.212-5.241-6.833-6.111-10.1-9.373
		c-1.922-1.919-2.02-2.379-0.269-3.825c4.155-3.432,5.223-6.927,0.835-11.166c-1.486-1.436-1.732-3.813-1.431-6.032
		c0.259-1.911,0.825-3.293,3.101-2.117c1.121,0.58,2.443,0.768,3.333,0.176c2.923-1.941,5.172-3.29,8.597-0.028
		c2.161,2.058,5.873-0.721,5.927-4.178c0.045-2.919,0.319-5.821-0.778-8.784c-0.651-1.758-1.232-5.133,3.24-3.121
		c2.173,0.978,3.797,0.297,2.878-3.229c-1.209-4.64-4.822-5.262-8.251-6.379c-2.006-0.653-4.913-0.881-4.758-3.173
		c0.14-2.068,0.914-4.71,3.613-5.922c4.797-2.153,10.336-3.747,10.434-10.61c0.001-0.115,0.529-0.309,0.814-0.314
		c0.481-0.009,0.966,0.104,1.485,0.169c-3.008,5.05-1.903,7.747,3.764,8.724c2.306,0.397,5.321-0.384,2.736,3.616
		c-0.48,0.743-0.243,1.938,0.628,2.723c2.65,2.388,3.841,5.31,3.266,8.906c-0.182,1.135,0.219,1.815,1.595,1.857
		c1.473,0.045,2.928-0.278,3.258-1.644c0.709-2.939,3.005-3.967,5.304-5.008c5.072-2.297,7.235-6.87,8.771-11.661
		c1.369-4.272,5.08-4.824,8.275-5.544c2.807-0.633,5.637-1.074,8.464-1.774c2.667-0.662,6.277-3.972,9.101,0.461
		c0.302,0.474,2.198,0.504,3.223-0.386c2.345-2.038,5.749-3.625,6.808-6.186c1.411-3.414,5.804-3.7,6.397-7.631
		c0.218-1.443,8.472-1.642,9.713-0.196c2.197,2.56,4.253,3.809,6.726,0.425c0.983-1.345,2.846-1.352,3.591-0.725
		c2.77,2.329,4.965,2.925,6.979-0.759c0.317-0.58,1.017-0.32,1.709,0.016c8.184,3.961,16.227-0.027,24.334-0.57
		c0.527-0.036,1.29-0.688,1.461-1.211c0.977-2.987,2.881-3.237,5.396-2.063c2.627,1.226,5.551,1.985,4.951,6.085
		c-0.466,3.189,0.519,6.583-1.675,9.508c-0.974,1.297-0.461,2.585,0.739,3.425c4.682,3.279,4.946,8.412,5.976,13.341
		c0.43,2.057,0.381,2.979-1.866,3.071c-2.771,0.113-5.165,1.102-4.13,4.339c0.806,2.517,3.463,4.622,5.925,3.462
		c4.625-2.18,8.383-1.971,12.635,0.873c1.595,1.066,4.228,0.704,6.414-1.048c2.457-1.969,5.215-3.092,7.623,1.094
		c0.773,1.344,1.16,1.509,0.335,2.822c-1.752,2.786-4.138,5.687-0.38,8.8c0.645,0.534,0.037,1.107-0.199,1.699
		c-2.214,5.546-2.563,11.053,0.384,16.508c0.371,0.688,0.303,1.616-0.54,2.533c-2.148-1.437-4.606-4.687-7.101-2.51
		c-3.135,2.737-4.762,7.327-2.667,11.133c1.624,2.952-0.275,3.355-1.42,4.665c-0.437,0.5-0.88,1.024-1.415,1.403
		c-2.148,1.524-2.263,3.776-1.399,5.75c1.017,2.326,3.368,1.58,5.277,1.186c0.842-0.174,1.902-1.483,2.258,0.119
		c0.34,1.534-1.235,1.159-2.094,1.139c-2.735-0.065-4.281,1.108-4.78,3.873c-0.546,3.025,1.478,4.003,3.604,5.03
		c5.127,2.474,10.728,0.641,13.583-3.998c0.777-1.265-0.099-3.782,2.164-3.792c2.916-0.012,6.018-0.943,8.743,0.595
		c4.054,2.287,6.97,5.66,9.112,9.859c2.186,4.282,0.314,7.849-2.169,10.68c-1.955,2.228-2.649,4.59-1.86,6.727
		c1.362,3.686-0.296,6.025-2.203,8.649c-3.445,4.739-4.178,10.392-4.906,15.969c-0.588,4.495,3.055,7.317,4.916,10.796
		c2.152,4.021,3.615,11.296-0.563,13.816c-1.307,0.788-2.008,2.739-4.078,0.982c-1.18-1.001-2.917,0.253-3.52,0.951
		c-3.163,3.666-7.955,3.444-11.764,5.43c-1.876,0.978-2.705-0.567-3.916-1.012c-6.368-2.339-9.962-0.498-11.125,5.894
		c-0.363,1.992-1.368,3.636-2.874,4.97c-2.901,2.568-3.37,5.298-0.233,7.928c3.559,2.983,1.688,3.714-1.484,4.746
		c-7.377,2.4-8.453,6.385-3.188,11.892c1.488,1.556,0.33,2.35-0.409,2.607c-4.484,1.562-3.338,5.439-2.359,7.86
		c0.997,2.465,3.988,3.426,7.104,1.862c1.216-0.61,2.933-0.209,4.42-0.292c2.149-0.12,5.069-0.261,5.695,1.661
		c0.758,2.331-2.419,2.369-3.925,3.387c-2.445,1.654-3.477,4.339-2.595,6.859c1.252,3.573-2.123,4.022-3.091,3.844
		c-3.831-0.706-7.909-0.833-10.675-4.739C421.413,372.585,411.864,369.493,402.29,378.752z"/>
	<path fill-rule="evenodd" clip-rule="evenodd" fill="#010202" d="M170.267,399.458c4.314-1.833,8.607-1.281,12.844-1.494
		c5.25-0.264,7.679-4.127,9.919-8.188c3.203-5.804,3.838-5.849,10.168-3.133c2.917,1.251,5.779-0.054,8.266-1.664
		c2.433-1.575,1.854-4.244,1.293-6.355c-0.789-2.972-2.999-5.05-6.152-5.564c-1.786-0.292-3.729-0.382-5.475,0.005
		c-3.864,0.857-5.552-2.25-6.632-4.42c-0.962-1.935-2.181-5.408,1.451-7.191c1.505-0.739,1.183-2.351,1.009-3.592
		c-0.632-4.508,1.103-8.785,1.124-13.241c0.013-2.793,2.146-4.721,4.234-6.317c2.516-1.923,4.164,0.171,6.151,1.442
		c6.212,3.972,9.29,3.143,12.625-3.359c1.477-2.881,3.573-3.126,5.967-1.786c2.116,1.184,4.291,1.229,6.576,1.47
		c4.425,0.466,6.689-1.279,8.529-5.392c4.101-9.171,12.759-10.201,20.149-2.863c3.691,3.666,6.839,7.781,13.141,7.514
		c4.883-0.207,6.016,4.304,6.438,8.149c0.451,4.108,1.008,8.659-3.892,10.976c-3.479,1.646-5.242,4.223-5.009,8.118
		c0.122,2.031-0.104,3.482-2.443,4.72c-2.963,1.567-2.171,7.603,1.033,8.616c2.983,0.943,3.365,3.612,4.1,5.609
		c3.646,9.911,6.625,20.066,11.01,29.71c0.325,0.714,0.254,1.623,0.302,2.444c0.39,6.697,1.292,7.542,7.878,7.328
		c4.255-0.138,6.116-2.581,6.117-8.15c0.001-2.774-0.136-5.474-0.826-8.264c-0.772-3.122-0.407-6.409,4.308-6.643
		c3.153-0.156,4.396-2.814,5.546-5.284c2.72-5.841,8.359-9.083,12.727-13.231c5.481-5.208,14.524-2.836,18.674,3.55
		c2.843,4.375,7.668,6.369,11.159,9.94c5.743,5.876,13.119,6.75,20.866,8.583c15.677,3.71,29.574,12.062,31.601,32.838
		c0.632,6.482,6.569,12.484,13.155,13.63c2.728,0.475,3.1,2.627,2.705,4.351c-2.07,9.048,4.368,14.334,9.158,19.91
		c3.364,3.917,5.099,7.778,4.91,12.677c-0.139,3.638,0.771,5.598,5.004,6.279c6.581,1.061,9.641,8.848,6.251,14.943
		c-0.668,1.201-1.317,2.19-1.248,3.586c0.031,0.64-0.005,1.37-0.285,1.921c-0.811,1.595-11.874,4.09-13.458,3.086
		c-2.944-1.865-5.999-2.903-9.636-2.796c-8.157,0.24-16.326,0.065-24.491,0.083c-1.675,0.004-3.794,0.212-4.002-1.895
		c-1.092-11.086-10.291-11.66-18.01-14.086c-6.475-2.034-13.187-3.007-19.876-4.079c-3.183-0.511-5.339-2.794-6.086-5.715
		c-0.861-3.37-2.701-6.182-4.175-9.192c-3.607-7.372-9.608-7.184-16.036-4.948c-3.225,1.121-5.949,3.419-9.402,0.272
		c-0.942-0.859-3.557-0.93-4.783-0.246c-4.986,2.774-8.901-0.189-13.105-1.861c-4.38-1.741-7.48,1.131-9.853,3.719
		c-3.976,4.337-7.93,6.213-13.813,4.172c-2.529-0.877-5.614-0.163-8.447-0.145c-3.094,0.02-4.808-1.537-4.453-4.579
		c0.32-2.743-0.724-5.204-1.326-7.657c-0.63-2.57-2.206-5.242-5.385-5.729c-3.342-0.513-7.21,0.389-7.937,3.473
		c-1.385,5.881-5.934,7.815-10.148,10.464c-3.799,2.389-7.254,4.771-3.826,10.071c1.399,2.163-0.56,3.143-2.283,2.873
		c-3.817-0.6-6.212,1.24-8.508,3.857c-1.727,1.968-4.308,2.973-6.66,2.06c-2.302-0.893-4.498-0.783-6.765-0.819
		c-4.863-0.079-8.296-3.253-9.298-8.076c-0.687-3.31-0.636-6.529-6.636-5.656c-5.208,0.759-10.875-0.219-16.423,0.568
		c-3.85,0.547-8.083,0.397-10.704-3.752c-0.346-0.549-1.648-1.215-0.916-1.627c6.575-3.696,3.915-12.355,9.327-16.922
		c1.992-1.681-0.405-5.179-1.217-7.794c-0.547-1.764-1.483-4.047,2.141-2.798c0.572,0.196,1.668,0.183,1.904-0.159
		c2.662-3.865,7.376-3.676,10.934-5.705c4.787-2.73,5.025-12.359,0.223-15.797c-2.358-1.688-4.583-4.374-8.239-3.345
		c-1.087,0.306-2.685,0.162-2.276-1.581c2.193-9.34-5.097-13.54-10.113-18.985C170.729,400.163,170.574,399.889,170.267,399.458z"/>
	<path fill-rule="evenodd" clip-rule="evenodd" fill="#010202" d="M378.389,689.047c-3.547,0.219-5.98-0.381-6.543-4.781
		c-0.519-4.063-4.288-3.333-7.194-3.24c-3.429,0.109-5.636,2.029-6.589,5.237c-0.319,1.073-0.222,2.346-0.032,3.479
		c0.584,3.502-0.734,4.821-4.274,4.315c-1.377-0.196-2.78-0.192-4.232,0.737c-13.308,8.521-27.33,5.371-41.293,2.227
		c-4.225-0.95-6.848-5.048-11.369-5.815c-3.415-0.58-6.804,0.337-10.291-0.823c-2.775-0.923-3.956-1.962-3.564-4.717
		c0.978-6.875-1.404-11.805-8.118-14.331c-0.684-0.258-2.208-0.466-1.782-1.259c2.584-4.816-1.246-10.439,2.408-15.274
		c3.457-4.574,3.992-10.222,3.48-15.884c-0.248-2.745-0.015-5.254,2.548-7.012c0.627-0.43,1.299-1.24,1.386-1.944
		c1.174-9.513,7.028-16.7,11.871-24.419c1.787-2.848,3.745-5.49,6.87-6.705c5.919-2.302,8.409-8.144,12.798-12.019
		c2.417-2.134-0.821-9.93-5.022-12.617c-1.709-1.093-3.426-1.83-3.467-4.236c-0.038-2.222,0.223-3.859,3.079-4.019
		c3.574-0.2,7.165-0.595,10.681-1.261c6.644-1.259,10.095-6.378,13.236-11.665c3.62-6.09,7.326-12.104,11.294-17.988
		c3.065-4.547,7.21-5.945,11.737-4.864c12.043,2.877,21.057-1.442,28.758-10.333c2.734-3.157,5.221-6.219,10.847-5.074
		c8.104,1.649,16.417-1.192,24.709-0.801c3.489,0.164,6.75,0.401,9.377,3.184c3.135,3.319,6.101,0.852,9.159-0.465
		c1.561-0.672,3.863-3.352,4.872-0.848c1.126,2.797,5.858,4.529,3.169,8.636c-2.736,4.179-0.9,8.937-1.694,13.393
		c-0.74,4.153-2.527,7.158-5.457,9.965c-5.324,5.099-4.927,9.054,1.003,13.147c6.221,4.295,6.057,10.595,0.506,15.504
		c-4.624,4.09-10.678,7.765-9.337,15.739c0.372,2.219,0.585,3.518,3.265,3.899c5.951,0.848,8.117,6.504,9.421,10.706
		c1.546,4.98-1.521,10.477-4.862,14.625c-1.349,1.675-4.649,1.901-7.132,2.491c-1.492,0.355-3.067,1.205-2.483,2.401
		c2.063,4.228-1.265,7.688-1.182,11.598c0.066,3.149,1.123,5.259,4.289,6.06c0.621,0.156,1.587,0.199,1.783,0.597
		c2.913,5.898,7.636,4.326,12.539,3.521c3.983-0.653,6.98,1.798,9.09,5.082c2.214,3.444,2.011,7.663,2.055,11.312
		c0.053,4.314-4.629,5.242-8.184,6.801c-3.494,1.531-4.15-1.451-5.233-2.874c-1.62-2.128-2.841-4.263-5.823-4.638
		c-0.852-0.107-2.314-0.998-2.297-1.485c0.173-4.771-3.314-6.352-6.769-7.021c-4.293-0.831-8.662-0.699-12.642,2.207
		c-1.774,1.295-3.063,2.204-2.778,4.536c0.158,1.3,0.311,2.804-1.13,3.555c-6.206,3.235-8.783,9.298-12.159,14.876
		c-1.658,2.739-3.943,6.885-8.348,2.406c-1.607-1.636-4.428-1.611-4.979,0.589C386.903,689.263,382.401,688.505,378.389,689.047z"/>
	<path fill-rule="evenodd" clip-rule="evenodd" fill="#010202" d="M259.907,127.789c-5.087-2.94-9.814-6.465-15.867-3.729
		c-1.203,0.543-2.771,0.643-3.242,2.473c-1.509,5.865-6.248,8.468-11.289,10.572c-3.434,1.433-5.208,12.005-4.298,16.349
		c0.701,3.349,1.784,6.474,5.689,7.579c2.16,0.612,3.144,2.815,5.079,4.422c-3.533,1.375-7.228-0.262-10.496,1.64
		c-4.135,2.406-6.98,5.259-6.512,10.44c0.179,1.982,0.01,3.995,0.036,5.993c0.015,1.19-0.273,3.224-1.131,2.918
		c-6.41-2.285-4.448,7.753-9.391,6.413c-4.631-1.256-9.315-1.362-13.74-0.706c-16.105,2.385-32.278,1.478-48.423,1.986
		c-6.252,0.197-12.712,1.195-18.601,3.217c-4.942,1.697-9.056,5.641-12.88,9.383c-4.127,4.039-8.76,5.815-14.581,5.362
		c-3.559-0.277-7.028-2.526-7.543-4.561c-0.587-2.318,1.885-5.729,3.64-8.236c1.915-2.738,5.23-4.596,0.126-7.746
		c-1.519-0.938-0.914-4.772-0.178-7.112c1.576-5.009,1.635-9.431-3.15-12.807c-1.749-1.233-2.197-2.961-2.231-5.128
		c-0.059-3.75-0.565-7.496-0.933-11.238c-0.258-2.637,0.87-4.138,3.259-5.365c5.088-2.613,5.029-8.82,0.026-11.862
		c-1.48-0.9-3.303-1.104-4.308-2.902c-2.13-3.814-1.219-5.884,3.109-6.097c2.239-0.11,3.806-0.33,3.993-3.152
		c0.163-2.452-0.384-4.227-2.836-4.825c-3.081-0.752-6.988-0.121-8.742-3.288c-2.706-4.886-5.069-10.047-5.478-15.78
		c-0.436-6.115,0.597-11.717,3.492-17.429c3.079-6.076,4.712-12.9,8.189-18.903c0.449-0.774,0.594-2.11,0.241-2.902
		c-2.911-6.524,1.327-5.814,5.489-5.808c44.802,0.065,89.604-0.067,134.405,0.194c4.877,0.028,8.856-3.063,13.84-2.304
		c3.325,0.506,5.271,0.788,4.42,4.863c-0.5,2.394-0.173,4.981-0.071,7.475c0.137,3.392-2.43,5.518-3.511,8.021
		c-2.571,5.95-9.962,8.225-10.483,15.129c-0.261,3.461,1.274,6.692,0.256,10.488c-0.979,3.647,6.433,10.541,10.746,11.153
		c1.683,0.239,3.775-0.761,2.308,2.806c-0.62,1.506,0.143,5.639,4.548,5.284C260.071,119.489,260.085,119.675,259.907,127.789z"/>
	<path fill-rule="evenodd" clip-rule="evenodd" fill="#010202" d="M47.125,763.851c4.389,1.082,8.612,1.787,12.599,3.175
		c9.333,3.247,18.772,2.215,28.142,0.851c5.174-0.752,7.142-6.952,4.102-11.378c-2.867-4.174-5.73-8.252-5.033-13.813
		c0.383-3.058,0.943-5.139,4.68-3.825c1.468,0.517,3.206-0.153,3.129-1.468c-0.202-3.47,2.634-3.229,4.423-4.458
		c8.102-5.565,14.142-12.372,16.087-22.669c0.846-4.477,2.229-8.59,0.784-13.1c-0.181-0.565-0.102-1.554,0.272-1.906
		c4.284-4.046,4.169-7.003-1.641-9.51c-1.624-0.7-1.014-3.541-0.393-4.995c0.536-1.257,2.503-2.35,4.152-1.584
		c2.498,1.16,4.698,1.521,6.659-0.786c1.974-2.321,0.507-4.546-0.171-6.859c-1.028-3.502,0.746-7.669-1.965-10.708
		c-4.13-4.629-1.272-8.401,1.175-12.163c1.24-1.906,1.131-3.907,0.703-5.692c-0.384-1.601-0.381-3.029,0.775-3.746
		c1.58-0.979,2.888,0.411,3.685,1.634c2.063,3.161,5.029,4.22,8.586,4.145c1.404-0.03,2.934,0.462,3.515-1.711
		c0.255-0.956,1.218-1.574,2.757-0.751c3.315,1.772,5.537-0.438,7.591-2.754c3.495-3.938,6.92-4.04,9.646,0.282
		c1.694,2.688,3.606,3.796,6.617,3.995c3.144,0.209,4.435,2.905,6.042,5.165c4.403,6.196,8.576,12.574,14.79,17.269
		c1.45,1.096,2.854,1.245,4.446,1.625c5.792,1.381,7.775,5.025,6.094,10.996c-0.381,1.354-0.82,2.873,0.063,3.734
		c3.741,3.65,1.309,7.318,0.227,10.909c-2.142,7.102-0.037,10.288,7.093,10.231c4.744-0.038,9.322,0.487,13.945,1.838
		c4.786,1.397,5.915,4.701,5.096,8.584c-1.154,5.478-2.127,10.287,4.691,12.755c2.028,0.733,2.506,3.615,2.298,5.016
		c-0.696,4.686,2.373,6.42,5.374,8.424c0.39,0.26,1.068,0.228,1.306,0.555c1.67,2.297,6.619,2.363,5.61,6.069
		c-1.14,4.188-3.736,7.79-8.762,8.849c-5.671,1.195-8.912,8.4-7.042,16.207c0.557,2.325,0.628,2.918-1.75,2.736
		c-0.321-0.025-0.878-0.015-0.948,0.145c-3.833,8.752-15.98,7.841-19.562,16.821c-1.29,3.233-4.609,2.631-6.684,2.802
		c-7.648,0.629-12.68,5.301-16.846,10.641c-2.184,2.799-4.053,3.847-7.223,3.592c-1.324-0.106-2.739-0.299-3.983,0.033
		c-4.313,1.152-6.794-1.16-8.986-4.314c-7.99-11.497-19.06-17.38-33-17.695c-6.293-0.143-11.926-1.599-17.441-4.923
		c-7.808-4.706-16.788-6.521-25.776-7.001c-11.569-0.619-22.738-2.896-33.663-6.465C51.142,767.912,48.365,767.065,47.125,763.851z"
		/>
	<path fill-rule="evenodd" clip-rule="evenodd" fill="#010202" d="M115.16,323.256c3.156,1.067,5.195,3.215,6.869,5.885
		c3.342,5.329,6.842,10.501,11.947,14.429c3.158,2.429,3.426,6.001,3.319,9.821c-0.135,4.803,4.231,7.295,6.543,10.839
		c0.972,1.49,2.504,2.492,2.191,4.66c-1.178,8.167,4.399,12.701,9.773,17.01c4.644,3.723,8.011,8.311,11.291,13.14
		c1.742,2.565,4.073,4.798,6.407,6.878c3.94,3.512,5.849,7.806,5.452,12.996c-0.237,3.1,0.5,4.303,3.953,4.186
		c6.458-0.219,11.375,7.291,8.975,13.199c-0.391,0.961-1.222,1.326-2.143,1.783c-3.438,1.707-7.579,1.894-10.454,4.809
		c-0.094,0.095-0.316,0.061-0.477,0.094c-6.83,1.396-6.98,1.606-3.799,8.742c0.965,2.165,1.4,3.726-0.699,5.628
		c-1.885,1.708-2.666,4.265-3.398,6.8c-0.688,2.386-0.875,5.011-4.296,6.178c-2.554,0.871-2.809,3.872-0.183,5.748
		c1.93,1.378,1.602,2.214,0.232,3.851c-3.016,3.605-4.579,7.588-3.005,12.549c0.811,2.556,1.824,6.145-3.513,5.672
		c-1.3-0.115-2.851,1.362-4.116,2.331c-3.166,2.422-6.215,4.743-10.675,3.587c-2.156-0.558-3.394,0.716-3.371,3.093
		c0.038,3.819,0.064,7.674,3.989,9.8c1.725,0.935,1.193,2.413,0.838,3.36c-0.554,1.479-1.544-0.015-2.377-0.126
		c-1.175-0.155-2.235-0.483-3.521,0.645c-1.623,1.423-3.919,4.299-5.507-0.703c-0.711-2.24-4.24-2.76-6.33-2.887
		c-3.382-0.206-3.038-1.858-3.136-4.097c-0.093-2.132,1.265-5.646-1.851-5.884c-2.959-0.226-6.353-1.895-9.421,1.884
		c-2.43,2.992-5.53,6.389-10.17,6.875c-3.58,0.375-3.059,4.824-6.476,6.406c-3.173,1.47-6.312,4.979-8.653,8.112
		c-2.501,3.348-3.187,7.843-7.266,10.393c-2.392,1.494-0.17,5.125-1.859,7.323c-0.636,0.828,0.52,2.696-1.371,2.624
		c-0.953-0.037-1.414-1.075-1.937-1.974c-2.248-3.86-4.5-7.437-9.289-9.179c-2.918-1.062-5.411-1.894-8.097-0.536
		c-3.378,1.707-5.384,0.305-6.478-2.642c-1.084-2.922-3.037-6.635,1.9-7.964c5.21-1.401,7.626-4.166,7.24-9.756
		c-0.134-1.928,1.735-3.637,3.914-4.485c2.707-1.054,3.456-3.381,2.588-5.894c-0.386-1.118-0.317-2.337-0.775-3.269
		c-5.5-11.19,2.555-20.495,4.211-30.665c1.313-8.063,2.544-16.132,5.733-23.829c2.693-6.498,8.622-11.037,10.524-17.745
		c1.581-5.571,2.972-10.749,9.464-12.332c0.272-0.066,0.55-0.42,0.683-0.706c2.563-5.491,7.419-7.064,12.905-7.976
		c4.649-0.772,6.077-5.507,2.969-9.02c-1.163-1.314-3.214-2.311-2.237-4.493c0.839-1.872,2.787-1.375,4.418-1.433
		c4.361-0.155,9.048-5.57,9.404-10.688c0.324-4.652-0.849-9.111-2.106-13.444c-1.913-6.597-0.519-13.335-1.649-20.027
		c-1.618-9.583-3.791-18.894-7.219-27.952C114.883,324.466,115.102,323.908,115.16,323.256z"/>
	<path fill-rule="evenodd" clip-rule="evenodd" fill="#010202" d="M488.602,502.513c-1.173-4.851-9.716-7.906-13.797-4.694
		c-3.217,2.532-6.47,5.47-7.414,9.541c-1.073,4.634-4.219,7.869-6.384,11.757c-2.62,4.704-6.736,1.812-9.959,1.61
		c-2.345-0.146-4.355-2.65-4.079-5.862c0.274-3.194,0.051-6.031,2.431-9.135c3.837-5.003-0.765-15.425-7.092-16.471
		c-4.354-0.72-5.55-2.548-5.349-6.504c0.236-4.65-1.207-8.012-4.873-11.818c-4.963-5.152-11.135-10.793-9.254-19.926
		c0.705-3.427-1.463-5.651-5.812-5.729c-4.155-0.074-6.403-3.512-8.064-7.158c-2.092-4.592-1.831-9.693-3.591-14.416
		c-4.437-11.9-13.681-18.2-24.74-22.781c-1.47-0.608-5.131-0.303-3.658-3.212c1.248-2.461-0.358-8.46,6.483-6.165
		c3.591,1.205,7.955,0.743,11.855,0.204c3.866-0.535,6.452-3.14,7.735-7.112c3.085-9.553,12.774-11.849,20.179-4.899
		c1.698,1.595,3.446,3.173,4.915,4.968c3.368,4.114,7.9,3.672,12.264,3.029c2.606-0.384,4.67-2.441,3.501-5.344
		c-1.367-3.394,0.34-4.553,2.893-5.791c1.992-0.966,4.743-1.847,4.085-4.765c-0.633-2.803-2.911-3.76-5.849-3.93
		c-3.005-0.175-5.95-0.564-8.955,0.058c-1.49,0.309-3.171,0.189-3.911-1.406c-0.758-1.634,0.439-2.741,1.561-3.804
		c2.553-2.421,5.685-4.583,0.212-7.634c-1.77-0.986-2.212-4.006,0.815-5.439c0.433-0.205,0.835-0.475,1.269-0.681
		c7.409-3.524,7.622-3.668,3.284-9.987c-1.332-1.941-0.478-2.404,0.545-3.354c1.995-1.854,3.011-3.979,3.25-6.833
		c0.417-4.979,4.023-6.475,8.371-3.823c2.182,1.331,4.018,3.255,6.854,0.464c1.025-1.007,3.782-1.781,5.023,1.976
		c4.011,12.146,12.425,20.712,23.712,26.57c8.92,4.629,12.124,13.477,15.97,21.842c0.332,0.721,0.739,1.498,1.326,1.995
		c2.726,2.313,0.882,3.329-1.11,4.478c-3.198,1.846-6.416,3.679-9.474,5.742c-1.625,1.098-4.293,2.849-4.142,3.994
		c0.608,4.595-1.714,8.939-0.792,13.393c1.347,6.502,3.127,12.786,1.403,19.678c-0.81,3.234,0.413,7.1,1.221,10.562
		c0.347,1.484,0.21,2.958,0.571,4.356c2.806,10.865-5.157,17.486-9.942,25.335c-2.733,4.483-4.244,8.975-2.227,14.245
		c0.793,2.073,0.888,4.443,1.115,6.696c0.495,4.904,6.938,8.68,11.612,6.787c1.597-0.646,3.906-2.257,4.855-0.723
		c1.198,1.936,0.808,4.574-0.222,7.052c-1.316,3.172-2.798,0.69-4.27,0.619C491.154,499.978,488.754,499.139,488.602,502.513z"/>
	<path fill-rule="evenodd" clip-rule="evenodd" fill="#010202" d="M57.712,690.01c5.145-11.923,1.436-21.981-4.074-31.961
		c-3.228-5.846-4.701-12.342-4.653-19.113c0.027-3.846-1.391-7.088-3.66-10.273c-3.079-4.323-6.077-8.879-5.345-14.711
		c0.312-2.486-0.09-4.849-1.509-7.045c-5.643-8.733-2.951-18.529-3.305-27.912c-0.05-1.33,1.246-3.221,2.464-3.998
		c4.791-3.055,3.476-6.797,0.793-9.854c-3.914-4.459-3.324-8.983-0.333-12.865c4.373-5.674,7.149-12.148,10.442-18.314
		c0.553,0.163,1.065,0.188,1.108,0.345c2.338,8.415,2.911,8.483,12.104,6.892c3.615-0.627,7.473,0.839,9.926,4.078
		c4.997,6.598,9.028,13.538,7.355,22.395c-0.944,4.998,0.475,8.903,5.384,11.36c2.334,1.169,2.957,4.562,6.098,5.165
		c0.838,0.16,1.758,1.053,2.706,0.771c8.445-2.512,12.595,4.054,17.597,8.482c2.98,2.639,2.514,7.143,4.517,10.499
		c1.939,3.249,4.221,5.257,8.138,5.065c1.967-0.096,3.41,0.055,4.796,2.306c2.651,4.307,8.311,3.552,11.037-0.998
		c0.25-0.417,0.599-0.839,1.006-1.085c3.706-2.234-0.459-7.391,2.906-9.003c2.728-1.308,6.972,1.185,8.843-4.032
		c1.93,3.794,0.016,6.31-1.124,8.671c-1.625,3.369-1.264,5.603,2.437,6.891c2.114,0.734,4.299,1.329,6.305,2.292
		c2,0.959,5.26,0.746,3.542,5.103c-1.226,3.107,2.667,2.584,5.064,3.691c-7.563,0.313-8.449,5.615-9.27,10.911
		c-0.178,1.146-0.849,1.231-1.71,1.236c-0.667,0.003-1.356,0.114-1.996-0.015c-4.525-0.914-4.728,3.908-7.329,5.425
		c-2.484,1.448-5.924-2.822-8.467,1.397c-1.372,2.276-6.146,0.939-8.215-2.152c-1.458-2.181-2.123-4.789-5.883-2.84
		c-3.366,1.745-4.263,4.004-2.9,7.149c1.568,3.619-1.552,5.451-2.931,7.618c-1.987,3.122-3.695,5.034,0.227,8.262
		c1.302,1.071,4.683,4.682,1.322,8.119c-0.677,0.691-0.305,2.501,0.855,3.596c1.861,1.756,1.481,4.237,0.569,5.96
		c-0.9,1.7-2.533-0.446-3.912-0.518c-2.92-0.152-5.239,0.033-6.82,3.379c-1.656,3.507-0.329,5.828,1.94,7.71
		c2.274,1.888,3.465,3.391,0.902,5.754c-0.879,0.811-0.821,1.881-0.623,2.78c1.203,5.479-1.454,10.478-1.918,15.755
		c-0.356,4.056-2.053,7.812-5.471,10.521c-1.296,1.027-2.605,2.181-3.498,3.546c-1.771,2.708-4.013,5.744-7.213,4.315
		c-3.548-1.583-5.664-5.311-5.898-9.458c-0.277-4.904,0.252-9.824-1.003-14.702c-1.765-6.858-8.765-10.495-15.419-7.757
		c-6.478,2.666-8.25,1.318-7.645-5.809c0.152-1.788-0.611-2.904-2.45-3.004C61.881,689.939,60.229,690.01,57.712,690.01z"/>
	<path fill-rule="evenodd" clip-rule="evenodd" fill="#010202" d="M461.242,661.701c-1.155-6.014-1.188-12.568-8.666-14.898
		c-1.075-0.336-2.126-1.11-3.211-0.766c-6.502,2.07-11.159-1.713-15.977-4.933c-2.872-1.921-1.857-5.079-0.784-6.922
		c1.396-2.396,2.223-4.005,0.212-6.32c-0.713-0.821-0.093-1.76,1.552-1.793c3.458-0.071,6.874-1.065,8.455-3.877
		c2.648-4.711,6.118-10.167,4.794-15.284c-1.319-5.1-4.601-10.376-10.288-12.785c-3.536-1.498-4.314-4.034-2.495-7.453
		c2.248-4.226,6.379-6.484,9.779-9.402c4.497-3.859,4.618-13.84-0.379-17.242c-6.801-4.632-6.864-5.564-1.248-11.556
		c3.205-3.419,4.939-7.525,5.008-12.259c0.036-2.497-0.271-5.037,0.088-7.482c0.383-2.612,1.248-4.809,4.902-4.822
		c7.94-0.028,14.35-5.581,15.929-13.842c0.845-4.424,4.25-6.837,6.777-9.801c2.515-2.948,6.13-0.446,9.135,0.18
		c1.874,0.391,0.017,2.093,0.151,3.204c0.174,1.434-2.493,3.083-0.157,4.209c2.061,0.993,4.338-0.365,4.86-2.288
		c1.238-4.563,3.552-2.633,6.076-1.615c1.307,0.527,1.247,0.833,0.792,2.052c-1.286,3.452-2.083,7.091-3.449,10.506
		c-1.277,3.191-1.484,6.278-0.597,9.546c1.587,5.842-0.531,9.7-6.376,10.856c-2.649,0.524-4.226,2.077-5.002,4.154
		c-0.887,2.372,0.087,4.872,2.519,5.788c2.555,0.963,0.86,1.867,0.376,2.86c-3.284,6.733-0.063,15.916,7.019,18.719
		c4.166,1.649,6.075,3.445,5.12,8.44c-1.415,7.4,1.749,10.883,9.475,12.167c1.061,0.177,2.047,0.806,3.574,1.434
		c-5.059,3.216-5.134,6.715-1.243,10.82c2.203,2.326,3.726,5.284,5.727,7.822c0.89,1.128,2.252,2.774,3.319,2.716
		c4.729-0.26,6.318,3.199,8.619,6.17c2.647,3.418,6.731,2.952,10.328,2.439c4.157-0.592,5.819,0.297,6.044,4.453
		c0.4,7.429,4.6,12.098,11.785,13.102c0.164,0.022,0.357-0.05,0.496,0.013c3.143,1.419,8.446,0.357,9.278,3.751
		c0.847,3.456-4.439,4.013-6.921,5.851c-9.342,6.915-15.428,15.574-16.649,27.341c-0.608,5.855-7.171,10.737-14.86,11.026
		c-3.326,0.124-6.662,0.083-9.991,0.002c-2.953-0.073-6.694,1.542-6.483-4.277c0.081-2.245-3.649-2.87-5.841-3.603
		c-3.378-1.128-5.396-3.516-5.697-6.621c-0.795-8.183-7.514-12.124-14.768-13.304c-3.486-0.567-7.124-0.896-10.703-1.129
		C467.484,656.777,464.659,659.924,461.242,661.701z"/>
	<path fill-rule="evenodd" clip-rule="evenodd" fill="#010202" d="M313.907,752.861c-6.373-0.79-12.85,0.411-19.086,1.443
		c-4.979,0.823-9.636,4.107-14.216,6.69c-6.285,3.544-12.648,5.872-20.09,6.205c-8.167,0.365-15.894,3.757-23.813,5.826
		c-4.034,1.054-6.028-0.507-5.498-4.653c0.672-5.263,2.268-9.302,8.42-10.813c5.206-1.28,6.684-6.622,8.327-11.182
		c0.686-1.903-0.926-3.079-2.235-4.058c-1.8-1.345-3.664-2.648-5.644-3.698c-3.262-1.729-5.317-3.81-5.276-7.983
		c0.018-1.786,0.083-5.061-2.879-5.588c-4.22-0.752-4.194-3.58-3.93-6.757c0.083-0.993,0.013-1.999,0.013-2.998
		c0-9.857-0.022-9.94-9.691-12.535c-4.25-1.14-8.564-1.946-13.016-1.776c-3.125,0.118-4.885-0.226-3.744-4.534
		c0.774-2.923,3.184-6.039,2.256-8.734c-1.987-5.775-1.141-11.853-2.812-17.576c-0.692-2.369-2.899-3.887-4.647-3.856
		c-6.988,0.12-9.827-5.543-13.785-9.413c-2.715-2.654-4.575-6.222-6.642-9.492c-2.264-3.581-4.735-6.226-9.532-6.548
		c-3.954-0.266-5.205-4.956-4.82-7.36c0.393-2.463,0.034-7.443,5.064-7.435c1.959,0.004,2.686-0.973,3.674-2.521
		c1.371-2.147,3.924-3.436,6.375-2.126c2.301,1.229,0.486,3.791-0.015,5.083c-2.744,7.071-2.313,13.111,4.089,17.992
		c0.455,0.347,0.629,1.094,0.874,1.681c4.108,9.854,4.106,9.824,14.337,9.877c2.801,0.015,6.531-1.329,6.43,3.812
		c-0.009,0.461,0.792,1.146,1.359,1.377c7.005,2.854,12.631,9.343,21.315,7.859c2.59-0.442,5.32-0.112,7.985-0.057
		c2.695,0.057,6.158-1.353,4.213,4.286c-1.12,3.247,2.974,3.122,4.907,2.479c2.362-0.786,4.418-2.573,6.518-4.054
		c5.463-3.854,8.607-3.944,13.715,0.275c1.715,1.417,3.434,0.973,5.154,0.964c10.307-0.051,14.063,4.468,12.447,12.707
		c-0.695,3.54,0.844,5.441,4.335,6.387c3.765,1.021,7.409,2.522,11.415,1.929c1.933-0.286,3.863,0.268,5.043,1.429
		c5.725,5.64,13.134,5.716,20.32,6.576c7.767,0.93,15.462,0.287,23.178-0.867c2.056-0.307,3.229-1.236,4.566-2.468
		c4.144-3.816,7.701-3.903,11.359,0.206c2.581,2.898,5.789,4.836,8.988,6.674c4.71,2.706,6.079,7.217,7.558,11.789
		c0.551,1.704-0.779,2.092-2.004,2.739c-5.018,2.653-9.617,5.718-12.852,10.694c-1.832,2.819-4.894,4.757-8.583,4.206
		c-8.71-1.302-15.285,2.84-19.784,9.291C328.512,751.479,322.723,754.965,313.907,752.861z"/>
	<path fill-rule="evenodd" clip-rule="evenodd" fill="#010202" d="M457.42,177.775c-2.026-1.876-3.613-0.034-5.308,0.66
		c-3.546,1.451-6.985,3.672-10.208-0.862c-0.911-1.282-3.067-0.728-4.686-0.229c-1.835,0.565-3.655,1.208-5.524,1.622
		c-1.342,0.297-3.181,0.082-3.321-1.333c-0.144-1.452,1.567-1.76,2.937-1.625c3.869,0.381,4.311-2.303,3.572-4.809
		c-1.419-4.812-0.966-10.435-5.918-13.882c-2.397-1.668-0.595-3.941,0.15-5.788c2.496-6.184-0.122-12.847-6.142-15.057
		c-2.029-0.745-4.416-1.282-6.091,0.283c-5.42,5.059-12.51,3.68-18.833,5.164c-2.025,0.475-4.404,0.637-5.942-1.782
		c-0.281-0.442-1.849-1.842-2.466-0.936c-3.68,5.409-10.261-0.983-14.149,3.625c-0.659,0.782-1.652-0.599-2.388-1.222
		c-0.729-0.618-1.219-1.736-2.387-1.576c-4.141,0.568-8.112,0.927-9.065-4.707c-0.03-0.181-1.251-0.338-1.85-0.205
		c-1.11,0.248-0.688,1.287-0.8,2.034c-0.312,2.098,1.381,5.381-3.129,4.961c-1.021-0.095-0.989,1.226-0.846,1.98
		c1.061,5.563-3.765,7.568-6.484,10.841c-0.567,0.684-0.988,0.779-1.975,0.205c-3.304-1.922-6.88-1.774-10.234-0.146
		c-4.965,2.41-10.57,2.075-15.672,3.927c-1.638,0.594-2.47,1.131-2.697,2.912c-0.814,6.349-3.884,10.974-10.172,13.257
		c-2.385,0.866-3.121,3.478-4.5,6.481c-0.666-3.991,0.768-7.707-2.889-9.72c-0.295-0.162-0.519-1.021-0.357-1.357
		c2.454-5.125,0.219-6.613-4.737-6.933c-1.305-0.084-5.609-0.667-2.476-4.607c0.831-1.045,0.862-3.891-1.344-4.724
		c-2.035-0.768-4.826,0.603-4.957,2.011c-0.628,6.73-6.744,7.313-10.63,10.367c-0.604,0.475-1.663,0.188-1.899,1.291
		c-1.402,6.554-4.518,4.355-8.744,2.348c-7.792-3.7-15.802-7.827-24.976-4.381c-0.265,0.1-0.856,0.025-0.916-0.122
		c-1.981-4.848-7.993-5.31-10.431-9.408c-2.205-3.706-0.904-8.1-0.771-12.137c0.075-2.282,1.864-4.138,4.296-5.449
		c4.226-2.278,8.045-5.061,10.262-9.809c2.272-4.867,12.167-4.125,16.123,1.663c3.09,4.521,7.309,6.7,11.922,8.604
		c2.908,1.2,6.117,1.963,8.488-1.048c1.508-1.916,3.028-4.096,0.121-6.326c-2.09-1.604-2.018-3.505,0.27-4.748
		c3.34-1.814,5.992-3.892,7.698-7.595c1.105-2.398,4.84-2.141,7.126-3.602c6.08-3.886,11.947-4.125,17.688,0.71
		c0.933,0.786,2.613,0.855,3.285,0.155c2.436-2.541,6.48-3.773,7.385-7.443c0.91-3.694,4.196-5.357,5.934-8.315
		c1.229-2.093,4.661-1.665,5.813-0.544c1.659,1.614,4.44,3.929,2.563,6.911c-1.671,2.654-1.156,5.461,0.312,7.104
		c1.536,1.718,4.261,0.321,6.302-0.801c4.862-2.673,10.79-1.692,15.645-4.57c0.794-0.471,2.184-0.636,2.375-1.47
		c1.268-5.543,4.699-4.472,8.915-3.881c2.678,0.375,5.65-1.946,8.585-2.689c9.43-2.388,19.377-2.618,28.813-7.713
		c-1.06,6.693,1.661,9.456,7.369,9.715c1.057,0.048,2.801,0.545,3.01,1.215c1.804,5.782,7.342,6.633,11.522,9.4
		c4.113,2.722,7.258,6.845,8.559,11.622c1.144,4.202,3.502,4.985,7.204,4.742c4.215-0.277,8.469-0.974,9.525,5.317
		c0.562,3.339,5.997,4.631,6.272,7.43c0.263,2.656-2.323,5.495-1.722,9.158c0.883,5.366-0.942,11.19,3.09,16.012
		c0.368,0.441,0.375,1.847-0.755,1.979c-4.544,0.53-4.335,3.728-4.082,6.996C457.859,177.208,457.64,177.492,457.42,177.775z"/>
	<path fill-rule="evenodd" clip-rule="evenodd" fill="#010202" d="M339.371,112.696c-0.598-1.019-0.798-2.449-0.119-3.189
		c4.158-4.536-0.679-7.401-2.104-10.646c-1.419-3.232-5.748-2.695-7.499-1.603c-3.651,2.278-7.399,5.355-8.541,9.858
		c-1.056,4.163-5.146,4.766-7.398,7.444c-0.578,0.688-1.103-0.8-1.748-1.119c-5.024-2.476-9.458-3.826-15.712-1.621
		c-8.135,2.868-12.291,10.078-19.239,13.97c-2.152,1.205-3.528,4.493-0.581,7.154c1.118,1.009,2.527,2.3,1.109,3.684
		c-0.876,0.855-2.338,1.923-3.976,1.238c-2.362-0.989-4.857-1.774-7.027-3.088c-3.494-2.116-5.359-5.203-4.539-9.545
		c1.01-5.349-1.991-8.997-7.167-8.1c-3.104,0.538-4.23-0.008-3.812-3.062c0.423-3.087-0.453-4.408-3.915-4.168
		c-3.439,0.238-5.133-3.228-7.421-5.042c-3.6-2.855-1.71-17.25,1.455-20.586c5.457-5.752,11.617-11.102,10.033-20.715
		c-1.032-6.258,1.283-7.686,7.44-7.684c17.087,0.005,34.126,1.882,51.221,1.127c3.014-0.133,4.638,1.811,6.842,3.561
		c2.955,2.346,1.779-5.005,5.736-3.621c4.74,1.658,9.8,0.708,14.685,1.218c2.111,0.22,3.362,1.989,3.96,4.238
		c0.756,2.848,1.741,6.087,5.614,5.507c3.394-0.508,5.473-2.811,5.294-6.46c-0.099-2.004,0.604-2.615,2.54-2.479
		c2.154,0.152,4.342,0.192,6.49,0.002c5.734-0.505,7.694-2.58,7.987-8.349c0.093-1.838,0.283-3.728,2.068-4.522
		c2.294-1.022,2.925,1.07,3.932,2.535c1.693,2.464,3.815,1.756,5.633,0.207c1.892-1.612,3.628-3.427,5.287-5.284
		c4.195-4.695,12.063-4.641,16.044,0.578c3.26,4.275,6.499,5.285,11.256,2.347c3.365-2.078,8.632,1.49,7.695,5.268
		c-2.603,10.491-4.46,21.317-11.326,30.261c-0.938,1.223-1.938,2.72-1.556,4.489c0.939,4.354-2.006,5.154-5.179,6.602
		c-7.921,3.614-16.832,2.888-24.712,6.039c-4.618,1.847-9.082,2.281-13.838,1.875c-0.984-0.084-2.31-0.192-2.613,0.928
		c-1.932,7.138-8.597,6.51-13.629,7.777C345.008,110.483,342.252,111.61,339.371,112.696z"/>
	<path fill-rule="evenodd" clip-rule="evenodd" fill="#010202" d="M136.532,571.91c-2.336,0.486-4.847-0.903-6.518,1.715
		c-1.743,2.731-0.404,4.787,0.923,7.113c3.862,6.767,3.309,10.85-2.325,17.067c-1.604,1.771-2.842,3.315-2.712,5.986
		c0.15,3.108-1.291,3.799-4.42,2.402c-4.01-1.788-5.191-5.289-6.274-8.761c-2.612-8.372-11.703-15.421-20.451-15.434
		c-7.545-0.011-15.542-10.087-13.534-17.422c0.858-3.135-0.238-6.307,0.246-8.978c0.926-5.104-0.707-11.515,5.285-15.008
		c0.868-0.506,1.513-1.74,1.84-2.771c2.296-7.222,8.933-10.354,13.553-15.36c4.493-4.868,11.666-5.724,14.756-11.825
		c0.985-1.943,3.035-1.903,4.842-1.58c2.332,0.417,1.302,2.486,1.169,3.622c-0.635,5.403,1.707,7.7,6.972,7.312
		c1.306-0.097,3.066,0.639,2.763,1.433c-2.375,6.231,2.792,3.102,4.483,3.462c3.938,0.839,7.06-2.971,11.381-2.275
		c1.957,0.314,2.29-6.036-0.074-7.452c-1.623-0.972-2.973-1.741-3.47-3.749c-1.289-5.209-1.297-5.226,4.05-4.449
		c2.481,0.36,4.425-0.847,6.079-2.55c2.459-2.532,5.286-4.316,8.923-4.393c1.767-0.037,2.854-0.702,2.973-2.563
		c0.298-4.663,3.081-2.771,4.489-1.25c2.304,2.49,4.835,3.225,7.954,2.794c4.784-0.662,6.644,3.441,8.864,6.134
		c1.673,2.029,2.928,3.225,5.493,2.879c2.044-0.274,3.905,0.017,3.154,2.725c-0.711,2.564-0.517,6.701-4.48,6.073
		c-3.861-0.611-5.681,0.571-7.677,3.615c-5.336,8.14-14.772,11.612-24.434,9.619c-1.13-0.233-1.684-0.955-2.4-1.576
		c-3.892-3.376-6.28-3.346-10.096,0.167c-4.048,3.725-7.824,7.371-7.013,13.813c0.391,3.104-2.747,5.046-4.869,7.032
		c-1.586,1.484-3.042,3.405-1.574,4.999c1.183,1.283,3.828,1.176,5.259-0.719c1.592-2.107,3.771-2.038,5.853-1.686
		c2.639,0.445,5.1,1.709,2.439,4.728c-3.017,3.423-0.524,8.307-3.828,11.759C141.818,570.973,140.001,573.218,136.532,571.91z"/>
	<path fill-rule="evenodd" clip-rule="evenodd" fill="#010202" d="M379.291,717.52c-1.441-7.525-5.646-13.099-12.673-16.56
		c-4.692-2.312-7.028-5.817-6.746-11.364c0.188-3.682,1.708-5.116,4.977-6.073c3.609-1.058,3.892,1.461,4.73,3.603
		c1.066,2.721,2.825,4.032,5.971,3.942c6.03-0.172,12.319,0.746,15.99-5.797c3.14,3.735,5.133,3.554,8.536,0.303
		c3.963-3.785,6.314-8.659,9.563-12.913c1.396-1.828,2.538-3.632,4.679-4.762c1.559-0.822,2.936-2.07,2.709-4.302
		c-0.376-3.712,2.569-4.894,5.183-5.454c2.707-0.582,5.645-0.252,8.464-0.067c1.047,0.069,2.921,0.829,2.938,1.323
		c0.261,7.667,9.728,7.033,11.781,13.29c0.808,2.462,4.365,1.847,6.255,0.925c3.668-1.789,7.46-3.266,9.896-7.349
		c2.544-4.264,6.599-7.11,12.411-6.369c4.017,0.512,7.956,1.232,11.922,1.991c5.289,1.011,7.802,4.826,8.956,9.223
		c1.336,5.082,3.043,9.076,8.767,10.284c0.781,0.165,3.547,0.013,2.711,2.856c-0.83,2.822-3.188,2.096-4.358,1.568
		c-2.449-1.104-4.854-0.818-7.27-0.783c-8.438,0.124-16.836-0.572-25.25-0.897c-6.5-0.251-12.557,0.432-18.979,4.133
		c-7.575,4.367-15.699,8.52-23.531,12.522c-8.471,4.329-17.776,6.267-25.932,11.098c-4.998,2.961-11.462,1.293-16.753,4.031
		C382.829,716.65,381.187,716.924,379.291,717.52z"/>
	<path fill-rule="evenodd" clip-rule="evenodd" fill="#010202" d="M458.08,176.925c0.962,0.299,1.077,0.934,0.696,1.764
		c-0.452-0.305-0.904-0.609-1.356-0.914C457.64,177.492,457.859,177.208,458.08,176.925z"/>
</g>
</svg>
